 <svg  version="1.0" xmlns="http://www.w3.org/2000/svg"  width="300.000000pt" height="300.000000pt" viewBox="0 0 300.000000 300.000000"  preserveAspectRatio="xMidYMid meet">  <g transform="translate(0.000000,300.000000) scale(0.100000,-0.100000)" fill="#0593f5" stroke="none"> <path d="M539 1772 l-186 -2 -29 -31 -29 -30 0 -173 c0 -258 -2 -256 262 -256 263 0 267 4 261 272 l-3 157 -29 29 c-15 17 -35 32 -45 34 -9 1 -100 2 -202 0z m222 -61 c17 -21 19 -41 19 -181 0 -144 -2 -160 -21 -184 l-20 -26 -184 0 -184 0 -20 26 c-19 24 -21 40 -21 181 0 161 6 188 43 203 12 5 100 8 195 7 169 -2 174 -3 193 -26z"/> <path d="M583 1668 c-6 -7 -13 -22 -15 -33 -3 -11 -20 -68 -37 -126 -36 -125 -37 -129 -12 -129 15 0 24 21 50 113 18 61 37 123 42 136 12 30 -10 61 -28 39z"/> <path d="M412 1577 c-23 -23 -42 -47 -42 -52 0 -14 82 -95 96 -95 26 0 20 26 -12 60 l-34 35 35 39 c33 38 37 56 11 56 -6 0 -31 -19 -54 -43z"/> <path d="M630 1608 c0 -7 14 -27 32 -45 l32 -33 -32 -33 c-34 -35 -39 -51 -21 -63 12 -7 99 73 99 91 0 5 -18 29 -40 53 -39 41 -70 54 -70 30z"/> <path d="M993 1675 c-45 -19 -63 -61 -63 -145 0 -87 18 -126 67 -147 49 -20 96 -10 127 28 35 41 33 59 -4 59 -20 0 -30 -5 -30 -15 0 -19 -35 -33 -67 -27 -30 6 -43 37 -43 103 0 56 11 84 40 99 24 13 70 -3 70 -25 0 -10 10 -15 30 -15 18 0 30 5 30 13 0 34 -66 88 -107 87 -10 -1 -32 -7 -50 -15z"/> <path d="M1253 1676 c-46 -21 -63 -62 -63 -148 0 -88 13 -117 63 -142 49 -24 94 -15 133 25 27 29 29 34 29 119 0 87 -1 91 -30 120 -37 36 -87 46 -132 26z m96 -61 c14 -14 19 -144 6 -165 -10 -17 -50 -29 -73 -23 -27 7 -42 44 -42 109 0 45 4 59 25 80 26 26 55 26 84 -1z"/> <path d="M1460 1529 l0 -151 81 4 c77 3 82 5 110 36 27 30 29 38 29 113 0 79 -1 82 -34 115 -33 33 -37 34 -110 34 l-76 0 0 -151z m145 87 c13 -10 20 -30 23 -75 6 -82 -12 -111 -68 -111 l-40 0 0 100 0 100 33 0 c18 0 42 -6 52 -14z"/> <path d="M1730 1530 l0 -150 88 0 c86 0 87 0 88 25 2 24 0 25 -62 25 l-64 0 0 41 0 41 55 -4 55 -5 0 30 0 29 -55 -4 -55 -5 0 39 0 38 63 0 c60 0 62 1 62 25 0 25 -1 25 -87 25 l-88 0 0 -150z"/> <path d="M2100 1530 l0 -150 29 0 c28 0 28 1 24 43 -4 32 0 48 14 65 l18 23 35 -65 c34 -64 36 -66 74 -66 36 0 38 1 24 18 -8 9 -34 47 -57 84 l-43 68 52 65 52 65 -36 0 c-33 0 -40 -6 -82 -62 -25 -35 -48 -65 -51 -68 -3 -3 -3 25 -1 63 l4 67 -28 0 -28 0 0 -150z m80 -1 c0 -5 -4 -9 -9 -9 -5 0 -16 -3 -25 -6 -11 -4 -16 0 -16 14 0 15 5 18 25 14 14 -2 25 -8 25 -13z"/> <path d="M2360 1530 l0 -150 30 0 30 0 0 150 0 150 -30 0 -30 0 0 -150z"/> <path d="M2470 1530 l0 -150 61 0 c111 0 159 45 159 149 0 110 -42 151 -155 151 l-65 0 0 -150z m142 83 c14 -12 18 -31 18 -83 0 -77 -13 -95 -72 -102 l-38 -4 0 103 0 103 37 0 c20 0 45 -7 55 -17z"/> <path d="M1940 1532 c0 -27 1 -27 53 -26 48 2 52 4 55 28 3 25 2 26 -52 26 -54 0 -56 -1 -56 -28z"/> </g> </svg> 